<svg width="258" height="45" viewBox="0 0 258 45" fill="none" xmlns="http://www.w3.org/2000/svg">
<path d="M0.8125 44V0.363635H19.6477C22.8864 0.363635 25.7202 0.953124 28.1491 2.1321C30.5781 3.31108 32.4673 5.00852 33.8168 7.22443C35.1662 9.44034 35.8409 12.0966 35.8409 15.1932C35.8409 18.3182 35.1449 20.9531 33.7528 23.098C32.375 25.2429 30.4361 26.8622 27.9361 27.956C25.4503 29.0497 22.5455 29.5966 19.2216 29.5966H7.97159V20.392H16.8352C18.2273 20.392 19.4134 20.2216 20.3935 19.8807C21.3878 19.5256 22.1477 18.9645 22.6733 18.1974C23.2131 17.4304 23.483 16.429 23.483 15.1932C23.483 13.9432 23.2131 12.9276 22.6733 12.1463C22.1477 11.3509 21.3878 10.7685 20.3935 10.3991C19.4134 10.0156 18.2273 9.82386 16.8352 9.82386H12.6591V44H0.8125ZM26.3807 23.9716L37.2898 44H24.4205L13.767 23.9716H26.3807ZM49.9389 44.6392C48.2107 44.6392 46.6423 44.3137 45.2337 43.6626C43.825 42.9998 42.7064 42.0469 41.8778 40.804C41.0492 39.5492 40.6349 38.0341 40.6349 36.2585C40.6349 34.696 40.9427 33.4295 41.5582 32.4588C42.1738 31.4763 42.9964 30.7069 44.0263 30.1506C45.0561 29.5942 46.1925 29.1799 47.4354 28.9077C48.6901 28.6236 49.9508 28.3987 51.2173 28.233C52.8745 28.0199 54.218 27.8601 55.2479 27.7536C56.2895 27.6352 57.0471 27.4399 57.5206 27.1676C58.0059 26.8954 58.2486 26.4219 58.2486 25.7472V25.6051C58.2486 23.8532 57.7692 22.492 56.8104 21.5213C55.8634 20.5507 54.4252 20.0653 52.4957 20.0653C50.4953 20.0653 48.9268 20.5033 47.7905 21.3793C46.6541 22.2552 45.8551 23.1903 45.3935 24.1847L41.4162 22.7642C42.1264 21.107 43.0734 19.8168 44.2571 18.8935C45.4527 17.9583 46.7547 17.3073 48.1634 16.9403C49.5838 16.5616 50.9806 16.3722 52.3537 16.3722C53.2296 16.3722 54.2358 16.4787 55.3722 16.6918C56.5204 16.893 57.6271 17.3132 58.6925 17.9524C59.7696 18.5916 60.6634 19.5563 61.3736 20.8466C62.0838 22.1368 62.4389 23.8651 62.4389 26.0312V44H58.2486V40.3068H58.0355C57.7514 40.8987 57.2779 41.532 56.6151 42.2067C55.9522 42.8814 55.0703 43.4555 53.9695 43.929C52.8686 44.4025 51.5251 44.6392 49.9389 44.6392ZM50.5781 40.875C52.2353 40.875 53.6321 40.5495 54.7685 39.8984C55.9167 39.2474 56.7808 38.407 57.3608 37.3771C57.9527 36.3473 58.2486 35.2642 58.2486 34.1278V30.2926C58.071 30.5057 57.6804 30.701 57.0767 30.8786C56.4848 31.0443 55.7983 31.1922 55.017 31.3224C54.2476 31.4408 53.496 31.5473 52.7621 31.642C52.04 31.7249 51.4541 31.7959 51.0043 31.8551C49.9152 31.9972 48.8973 32.228 47.9503 32.5476C47.0152 32.8554 46.2576 33.3229 45.6776 33.9503C45.1094 34.5658 44.8253 35.4062 44.8253 36.4716C44.8253 37.9276 45.3639 39.0284 46.4411 39.7741C47.5301 40.508 48.9091 40.875 50.5781 40.875ZM70.0872 44V16.7273H74.2775V44H70.0872ZM72.2179 12.1818C71.4011 12.1818 70.6968 11.9036 70.1049 11.3473C69.5249 10.791 69.2349 10.1222 69.2349 9.34091C69.2349 8.55966 69.5249 7.89086 70.1049 7.33452C70.6968 6.77817 71.4011 6.5 72.2179 6.5C73.0346 6.5 73.733 6.77817 74.313 7.33452C74.9049 7.89086 75.2008 8.55966 75.2008 9.34091C75.2008 10.1222 74.9049 10.791 74.313 11.3473C73.733 11.9036 73.0346 12.1818 72.2179 12.1818ZM86.1428 27.5938V44H81.9524V16.7273H86.0007V20.9886H86.3558C86.995 19.6037 87.9657 18.491 89.2678 17.6506C90.5698 16.7983 92.2507 16.3722 94.3104 16.3722C96.157 16.3722 97.7727 16.7509 99.1577 17.5085C100.543 18.2543 101.62 19.3906 102.389 20.9176C103.159 22.4328 103.543 24.3504 103.543 26.6705V44H99.353V26.9545C99.353 24.812 98.7966 23.143 97.6839 21.9474C96.5713 20.7401 95.0443 20.1364 93.103 20.1364C91.7654 20.1364 90.5698 20.4264 89.5163 21.0064C88.4747 21.5864 87.652 22.4328 87.0483 23.5455C86.4446 24.6581 86.1428 26.0076 86.1428 27.5938ZM130.519 22.8352L126.754 23.9006C126.518 23.2732 126.169 22.6636 125.707 22.0717C125.257 21.468 124.642 20.9709 123.86 20.5803C123.079 20.1896 122.079 19.9943 120.86 19.9943C119.191 19.9943 117.8 20.379 116.687 21.1484C115.586 21.906 115.036 22.8707 115.036 24.0426C115.036 25.0843 115.414 25.907 116.172 26.5107C116.93 27.1143 118.113 27.6174 119.723 28.0199L123.771 29.0142C126.21 29.6061 128.027 30.5116 129.222 31.7308C130.418 32.9382 131.016 34.4948 131.016 36.4006C131.016 37.9631 130.566 39.3598 129.666 40.5909C128.779 41.822 127.536 42.7926 125.938 43.5028C124.34 44.2131 122.481 44.5682 120.362 44.5682C117.581 44.5682 115.278 43.9645 113.455 42.7571C111.633 41.5497 110.478 39.786 109.993 37.4659L113.97 36.4716C114.349 37.9394 115.065 39.0402 116.119 39.7741C117.184 40.508 118.575 40.875 120.291 40.875C122.244 40.875 123.795 40.4607 124.943 39.6321C126.103 38.7917 126.683 37.7855 126.683 36.6136C126.683 35.6667 126.352 34.8736 125.689 34.2344C125.026 33.5833 124.008 33.098 122.635 32.7784L118.09 31.7131C115.592 31.1212 113.757 30.2038 112.585 28.9609C111.425 27.7062 110.845 26.1378 110.845 24.2557C110.845 22.7169 111.277 21.3556 112.142 20.1719C113.017 18.9882 114.207 18.0589 115.71 17.3842C117.226 16.7095 118.942 16.3722 120.86 16.3722C123.558 16.3722 125.677 16.964 127.216 18.1477C128.767 19.3314 129.868 20.8939 130.519 22.8352ZM148.758 44.5682C146.13 44.5682 143.864 43.9882 141.958 42.8281C140.064 41.6562 138.602 40.0227 137.572 37.9276C136.554 35.8205 136.045 33.3703 136.045 30.5767C136.045 27.7831 136.554 25.321 137.572 23.1903C138.602 21.0478 140.034 19.3788 141.869 18.1832C143.716 16.9759 145.87 16.3722 148.332 16.3722C149.752 16.3722 151.155 16.6089 152.54 17.0824C153.925 17.5559 155.186 18.3253 156.322 19.3906C157.458 20.4441 158.364 21.8409 159.039 23.581C159.713 25.321 160.051 27.4635 160.051 30.0085V31.7841H139.028V28.1619H155.789C155.789 26.6231 155.482 25.25 154.866 24.0426C154.262 22.8352 153.398 21.8823 152.274 21.1839C151.161 20.4856 149.847 20.1364 148.332 20.1364C146.663 20.1364 145.219 20.5507 144 21.3793C142.792 22.196 141.863 23.2614 141.212 24.5753C140.561 25.8892 140.235 27.2978 140.235 28.8011V31.2159C140.235 33.2756 140.591 35.0215 141.301 36.4538C142.023 37.8743 143.023 38.9574 144.301 39.7031C145.58 40.437 147.065 40.804 148.758 40.804C149.859 40.804 150.853 40.6501 151.741 40.3423C152.641 40.0227 153.416 39.5492 154.067 38.9219C154.718 38.2827 155.221 37.4896 155.576 36.5426L159.625 37.679C159.199 39.0521 158.482 40.2595 157.476 41.3011C156.47 42.331 155.227 43.1359 153.748 43.7159C152.268 44.2841 150.605 44.5682 148.758 44.5682ZM170.615 27.5938V44H166.425V16.7273H170.473V20.9886H170.828C171.468 19.6037 172.438 18.491 173.74 17.6506C175.042 16.7983 176.723 16.3722 178.783 16.3722C180.63 16.3722 182.245 16.7509 183.63 17.5085C185.015 18.2543 186.092 19.3906 186.862 20.9176C187.631 22.4328 188.016 24.3504 188.016 26.6705V44H183.826V26.9545C183.826 24.812 183.269 23.143 182.157 21.9474C181.044 20.7401 179.517 20.1364 177.576 20.1364C176.238 20.1364 175.042 20.4264 173.989 21.0064C172.947 21.5864 172.125 22.4328 171.521 23.5455C170.917 24.6581 170.615 26.0076 170.615 27.5938ZM214.991 22.8352L211.227 23.9006C210.99 23.2732 210.641 22.6636 210.18 22.0717C209.73 21.468 209.114 20.9709 208.333 20.5803C207.552 20.1896 206.551 19.9943 205.332 19.9943C203.663 19.9943 202.272 20.379 201.16 21.1484C200.059 21.906 199.508 22.8707 199.508 24.0426C199.508 25.0843 199.887 25.907 200.645 26.5107C201.402 27.1143 202.586 27.6174 204.196 28.0199L208.244 29.0142C210.683 29.6061 212.5 30.5116 213.695 31.7308C214.891 32.9382 215.488 34.4948 215.488 36.4006C215.488 37.9631 215.039 39.3598 214.139 40.5909C213.251 41.822 212.008 42.7926 210.41 43.5028C208.812 44.2131 206.954 44.5682 204.835 44.5682C202.053 44.5682 199.751 43.9645 197.928 42.7571C196.105 41.5497 194.951 39.786 194.466 37.4659L198.443 36.4716C198.822 37.9394 199.538 39.0402 200.591 39.7741C201.657 40.508 203.048 40.875 204.764 40.875C206.717 40.875 208.268 40.4607 209.416 39.6321C210.576 38.7917 211.156 37.7855 211.156 36.6136C211.156 35.6667 210.825 34.8736 210.162 34.2344C209.499 33.5833 208.481 33.098 207.108 32.7784L202.562 31.7131C200.065 31.1212 198.23 30.2038 197.058 28.9609C195.898 27.7062 195.318 26.1378 195.318 24.2557C195.318 22.7169 195.75 21.3556 196.614 20.1719C197.49 18.9882 198.68 18.0589 200.183 17.3842C201.698 16.7095 203.415 16.3722 205.332 16.3722C208.031 16.3722 210.15 16.964 211.689 18.1477C213.239 19.3314 214.34 20.8939 214.991 22.8352ZM233.231 44.5682C230.603 44.5682 228.336 43.9882 226.43 42.8281C224.536 41.6562 223.075 40.0227 222.045 37.9276C221.027 35.8205 220.518 33.3703 220.518 30.5767C220.518 27.7831 221.027 25.321 222.045 23.1903C223.075 21.0478 224.507 19.3788 226.342 18.1832C228.188 16.9759 230.343 16.3722 232.805 16.3722C234.225 16.3722 235.628 16.6089 237.013 17.0824C238.398 17.5559 239.658 18.3253 240.795 19.3906C241.931 20.4441 242.837 21.8409 243.511 23.581C244.186 25.321 244.523 27.4635 244.523 30.0085V31.7841H223.501V28.1619H240.262C240.262 26.6231 239.954 25.25 239.339 24.0426C238.735 22.8352 237.871 21.8823 236.746 21.1839C235.634 20.4856 234.32 20.1364 232.805 20.1364C231.136 20.1364 229.692 20.5507 228.472 21.3793C227.265 22.196 226.336 23.2614 225.685 24.5753C225.034 25.8892 224.708 27.2978 224.708 28.8011V31.2159C224.708 33.2756 225.063 35.0215 225.773 36.4538C226.496 37.8743 227.496 38.9574 228.774 39.7031C230.053 40.437 231.538 40.804 233.231 40.804C234.332 40.804 235.326 40.6501 236.214 40.3423C237.113 40.0227 237.889 39.5492 238.54 38.9219C239.191 38.2827 239.694 37.4896 240.049 36.5426L244.097 37.679C243.671 39.0521 242.955 40.2595 241.949 41.3011C240.943 42.331 239.7 43.1359 238.22 43.7159C236.741 44.2841 235.077 44.5682 233.231 44.5682Z" fill="white"/>
<path d="M253.952 44.2841C253.076 44.2841 252.324 43.9704 251.697 43.343C251.069 42.7157 250.756 41.964 250.756 41.0881C250.756 40.2121 251.069 39.4605 251.697 38.8331C252.324 38.2057 253.076 37.892 253.952 37.892C254.828 37.892 255.579 38.2057 256.207 38.8331C256.834 39.4605 257.148 40.2121 257.148 41.0881C257.148 41.6681 257 42.2008 256.704 42.6861C256.42 43.1714 256.035 43.562 255.55 43.858C255.076 44.142 254.544 44.2841 253.952 44.2841Z" fill="white"/>
</svg>
